<?xml version="1.0" encoding="UTF-8"?>
<svg width="20px" height="20px" viewBox="0 0 20 20" version="1.1" xmlns="http://www.w3.org/2000/svg" xmlns:xlink="http://www.w3.org/1999/xlink">
    <!-- Generator: Sketch 54.1 (76490) - https://sketchapp.com -->
    <title>Exportable / Soundcloud</title>
    <desc>Created with Sketch.</desc>
    <g id="Exportable-/-Soundcloud" stroke="none" stroke-width="1" fill="none" fill-rule="evenodd">
        <path d="M15,8.00398804 C15.2630005,7.70760132 16,7.71430739 16,7.71430739 C17.4720285,7.68841322 19,9.05745314 19,10.7143074 C19,12.3711616 17.6568542,13.7143074 16,13.7143074 C15.7662431,13.7143074 15.4329097,13.7143074 15,13.7143074 L10,13.7143074 L10,6.33722363 C10,5.58120948 11.1789193,5 12.1425803,5 C13.1062414,5 15,5.79439219 15,7.45124644 L15,8.00398804 Z" id="Full-Cloud" fill="#232F50"></path>
        <path d="M8.5,10.4378249 C8.5,9.28186066 8.68391136,6.71430739 8.97873752,6.71430739 C9.27356367,6.71430739 9.5,9.26045143 9.5,10.4378249 C9.5,11.6151984 9.27356367,13.7143074 8.97873752,13.7143074 C8.68391136,13.7143074 8.5,11.5937892 8.5,10.4378249 Z" id="Slice-6" fill="#232F50"></path>
        <path d="M7,11.3739628 C7,10.548274 7.18391136,8.71430739 7.47873752,8.71430739 C7.77356367,8.71430739 8,10.5329817 8,11.3739628 C8,12.2149438 7.77356367,13.7143074 7.47873752,13.7143074 C7.18391136,13.7143074 7,12.1996515 7,11.3739628 Z" id="Slice-5" fill="#232F50"></path>
        <path d="M5.5,11.1399283 C5.5,10.2316707 5.68391136,8.21430739 5.97873752,8.21430739 C6.27356367,8.21430739 6.5,10.2148491 6.5,11.1399283 C6.5,12.0650075 6.27356367,13.7143074 5.97873752,13.7143074 C5.68391136,13.7143074 5.5,12.0481859 5.5,11.1399283 Z" id="Slice-4" fill="#232F50"></path>
        <path d="M4,11.8420317 C4,11.1814807 4.18391136,9.71430739 4.47873752,9.71430739 C4.77356367,9.71430739 5,11.1692468 5,11.8420317 C5,12.5148165 4.77356367,13.7143074 4.47873752,13.7143074 C4.18391136,13.7143074 4,12.5025827 4,11.8420317 Z" id="Slice-3" fill="#232F50"></path>
        <path d="M2.5,12.3101006 C2.5,11.8146874 2.68391136,10.7143074 2.97873752,10.7143074 C3.27356367,10.7143074 3.5,11.805512 3.5,12.3101006 C3.5,12.8146893 3.27356367,13.7143074 2.97873752,13.7143074 C2.68391136,13.7143074 2.5,12.8055139 2.5,12.3101006 Z" id="Slice-2" fill="#232F50"></path>
        <path d="M1,12.2781695 C1,11.947894 1.18391136,11.2143074 1.47873752,11.2143074 C1.77356367,11.2143074 2,11.9417771 2,12.2781695 C2,12.614562 1.77356367,13.2143074 1.47873752,13.2143074 C1.18391136,13.2143074 1,12.608445 1,12.2781695 Z" id="Slice-1" fill="#232F50"></path>
    </g>
</svg>