<?xml version="1.0" encoding="UTF-8"?>
<svg width="20px" height="20px" viewBox="0 0 20 20" version="1.1" xmlns="http://www.w3.org/2000/svg" xmlns:xlink="http://www.w3.org/1999/xlink">
    <!-- Generator: Sketch 54.1 (76490) - https://sketchapp.com -->
    <title>Exportable / Twitter</title>
    <desc>Created with Sketch.</desc>
    <g id="Exportable-/-Twitter" stroke="none" stroke-width="1" fill="none" fill-rule="evenodd">
        <path d="M2.86684927,3.92598497 C4.42894647,5.12358061 5.60354303,5.92422835 6.39063897,6.32792819 C7.17773491,6.73162803 8.27976187,7.14242934 9.69671984,7.56033211 C9.18258053,5.70618841 9.72137319,4.34927246 11.3130978,3.48958426 C12.9048224,2.62989606 14.3095922,2.90238857 15.5274072,4.30706179 L17.6067932,3.48958426 C17.4452588,3.94804138 17.2872687,4.28258012 17.1328226,4.49320048 C16.9783766,4.70382084 16.6762042,4.99681271 16.2263053,5.3721761 L18,4.97133 C17.7468294,5.33653231 17.5271241,5.62209334 17.3408841,5.82801309 C17.154644,6.03393284 16.835307,6.34437391 16.3828731,6.75933631 C16.1006713,11.0904482 14.4107463,14.0934817 11.3130978,15.7684369 C8.21544938,17.4433921 5.11108344,17.409863 2,15.6678497 C3.11778535,15.6140048 3.95150429,15.4986928 4.50115681,15.3219138 C5.05080934,15.1451347 5.68063672,14.7897414 6.39063897,14.2557337 C5.49555213,13.911472 4.88497997,13.5878654 4.55892249,13.2849141 C4.23286502,12.9819628 3.8976556,12.4441437 3.55329426,11.6714568 L5.02680074,11.6714568 C4.02361388,11.2032383 3.35497733,10.76042 3.02089108,10.3430018 C2.68680483,9.92558351 2.45190237,9.19980776 2.31618369,8.16567452 L3.75970925,8.50000609 C3.0813266,7.93025082 2.65002572,7.20622485 2.4658066,6.32792819 C2.28158748,5.44963152 2.41526837,4.64898378 2.86684927,3.92598497 Z" id="Twitter-outline" fill="#232F50"></path>
    </g>
</svg>