<?xml version="1.0" encoding="UTF-8"?>
<svg width="20px" height="20px" viewBox="0 0 20 20" version="1.1" xmlns="http://www.w3.org/2000/svg" xmlns:xlink="http://www.w3.org/1999/xlink">
    <!-- Generator: Sketch 54.1 (76490) - https://sketchapp.com -->
    <title>Exportable / User Add</title>
    <desc>Created with Sketch.</desc>
    <g id="Exportable-/-User-Add" stroke="none" stroke-width="1" fill="none" fill-rule="evenodd">
        <path d="M13.5,13.5 L13.5,11 C13.5,9.61928813 12.3807119,8.5 11,8.5 L5,8.5 C3.61928813,8.5 2.5,9.61928813 2.5,11 L2.5,16.5 L10.5,16.5 L10.5,16 C10.5,14.6192881 11.6192881,13.5 13,13.5 L13.5,13.5 Z M8,5.5 C9.38071187,5.5 10.5,4.38071187 10.5,3 C10.5,1.61928813 9.38071187,0.5 8,0.5 C6.61928813,0.5 5.5,1.61928813 5.5,3 C5.5,4.38071187 6.61928813,5.5 8,5.5 Z" id="User-Outline" stroke="#232F50"></path>
        <path d="M19,15.5 L16.5,15.5 L16.5,13 C16.5,12.7238576 16.2761424,12.5 16,12.5 C15.7238576,12.5 15.5,12.7238576 15.5,13 L15.5,15.5 L13,15.5 C12.7238576,15.5 12.5,15.7238576 12.5,16 C12.5,16.2761424 12.7238576,16.5 13,16.5 L15.5,16.5 L15.5,19 C15.5,19.2761424 15.7238576,19.5 16,19.5 C16.2761424,19.5 16.5,19.2761424 16.5,19 L16.5,16.5 L19,16.5 C19.2761424,16.5 19.5,16.2761424 19.5,16 C19.5,15.7238576 19.2761424,15.5 19,15.5 Z" id="Add-Cross" stroke="#232F50"></path>
    </g>
</svg>