<?xml version="1.0" encoding="UTF-8"?>
<svg width="20px" height="20px" viewBox="0 0 20 20" version="1.1" xmlns="http://www.w3.org/2000/svg" xmlns:xlink="http://www.w3.org/1999/xlink">
    <!-- Generator: Sketch 54.1 (76490) - https://sketchapp.com -->
    <title>Exportable / User Roles</title>
    <desc>Created with Sketch.</desc>
    <g id="Exportable-/-User-Roles" stroke="none" stroke-width="1" fill="none" fill-rule="evenodd">
        <path d="M11.0007844,9.5 C10.5392115,8.88513001 9.80618614,8.5 9,8.5 L3,8.5 C1.61928813,8.5 0.5,9.61928813 0.5,11 L0.5,16.5 L6.5,16.5 L6.5,12 C6.5,10.6192881 7.61928813,9.5 9,9.5 L11.0007844,9.5 Z M6,5.5 C7.38071187,5.5 8.5,4.38071187 8.5,3 C8.5,1.61928813 7.38071187,0.5 6,0.5 C4.61928813,0.5 3.5,1.61928813 3.5,3 C3.5,4.38071187 4.61928813,5.5 6,5.5 Z" id="User-Shape" stroke="#232F50"></path>
        <path d="M8.5,19.5 L18.5,19.5 L18.5,13 C18.5,12.1715729 17.8284271,11.5 17,11.5 L10,11.5 C9.17157288,11.5 8.5,12.1715729 8.5,13 L8.5,19.5 Z" id="Paper-Outline" stroke="#232F50"></path>
        <path d="M14,12.5 L14,18" id="Middle-Bar" stroke="#232F50" stroke-width="0.5" stroke-linecap="round" transform="translate(14.000000, 15.500000) rotate(-90.000000) translate(-14.000000, -15.500000) "></path>
        <path d="M14,14.5 L14,20" id="Bottom-Bar" stroke="#232F50" stroke-width="0.5" stroke-linecap="round" transform="translate(14.000000, 17.500000) rotate(-90.000000) translate(-14.000000, -17.500000) "></path>
        <path d="M14,10.5 L14,16" id="Top-Bar" stroke="#232F50" stroke-width="0.5" stroke-linecap="round" transform="translate(14.000000, 13.500000) rotate(-90.000000) translate(-14.000000, -13.500000) "></path>
    </g>
</svg>