<?xml version="1.0" encoding="UTF-8"?>
<svg width="20px" height="20px" viewBox="0 0 20 20" version="1.1" xmlns="http://www.w3.org/2000/svg" xmlns:xlink="http://www.w3.org/1999/xlink">
    <!-- Generator: Sketch 54.1 (76490) - https://sketchapp.com -->
    <title>Exportable / Vimeo</title>
    <desc>Created with Sketch.</desc>
    <g id="Exportable-/-Vimeo" stroke="none" stroke-width="1" fill="none" fill-rule="evenodd">
        <path d="M1.13361971,6.89861266 C0.580060697,7.16780846 1.74646266,6.16029691 4.63282559,3.87607801 C8.96236998,0.449749655 10.0969112,11.5188795 11.1441531,11.1343052 C12.1913949,10.749731 13.2068015,8.703056 13.2068015,7.30240636 C13.2068015,6.36863993 12.4236064,6.17126589 10.8572163,6.71028423 C11.5529264,4.73865369 12.7319953,3.5369884 14.3944231,3.10528835 C15.5181137,2.81348782 16.8469039,3.14671485 17.4524672,3.87607801 C18.0580304,4.60544117 18.297257,6.81347247 17.4524672,8.28865187 C15.9147457,10.9738346 12.2901511,17.8005817 8.5592151,16.9226167 C4.82827911,16.0446517 5.27497097,6.71028423 3.51048983,6.89861266 C2.88657904,7.29123497 2.39165196,7.63838639 2.0257086,7.94006689 L1.13361971,6.89861266 Z" id="Vimeo-Outline" fill="#232F50"></path>
    </g>
</svg>